<mxfile host="app.diagrams.net" modified="2021-09-19T03:34:15.160Z" agent="5.0 (Windows NT 10.0; WOW64) AppleWebKit/537.36 (KHTML, like Gecko) Chrome/70.0.3538.25 Safari/537.36 Core/1.70.3875.400 QQBrowser/10.8.4492.400" etag="Nz-8VodbwS-v7WsIS5bB" version="14.8.0" type="github">
  <diagram id="C5RBs43oDa-KdzZeNtuy" name="Page-1">
    <mxGraphModel dx="1133" dy="495" grid="1" gridSize="10" guides="1" tooltips="1" connect="1" arrows="1" fold="1" page="1" pageScale="1" pageWidth="827" pageHeight="1169" math="0" shadow="0">
      <root>
        <mxCell id="WIyWlLk6GJQsqaUBKTNV-0" />
        <mxCell id="WIyWlLk6GJQsqaUBKTNV-1" parent="WIyWlLk6GJQsqaUBKTNV-0" />
        <mxCell id="WIyWlLk6GJQsqaUBKTNV-2" value="" style="rounded=0;html=1;jettySize=auto;orthogonalLoop=1;fontSize=11;endArrow=block;endFill=0;endSize=8;strokeWidth=1;shadow=0;labelBackgroundColor=none;edgeStyle=orthogonalEdgeStyle;" parent="WIyWlLk6GJQsqaUBKTNV-1" source="WIyWlLk6GJQsqaUBKTNV-3" target="WIyWlLk6GJQsqaUBKTNV-6" edge="1">
          <mxGeometry relative="1" as="geometry" />
        </mxCell>
        <mxCell id="WIyWlLk6GJQsqaUBKTNV-3" value="Lamp doesn&#39;t work" style="rounded=1;whiteSpace=wrap;html=1;fontSize=12;glass=0;strokeWidth=1;shadow=0;" parent="WIyWlLk6GJQsqaUBKTNV-1" vertex="1">
          <mxGeometry x="7" y="80" width="120" height="40" as="geometry" />
        </mxCell>
        <mxCell id="WIyWlLk6GJQsqaUBKTNV-4" value="Yes" style="rounded=0;html=1;jettySize=auto;orthogonalLoop=1;fontSize=11;endArrow=block;endFill=0;endSize=8;strokeWidth=1;shadow=0;labelBackgroundColor=none;edgeStyle=orthogonalEdgeStyle;" parent="WIyWlLk6GJQsqaUBKTNV-1" source="WIyWlLk6GJQsqaUBKTNV-6" target="WIyWlLk6GJQsqaUBKTNV-10" edge="1">
          <mxGeometry y="20" relative="1" as="geometry">
            <mxPoint as="offset" />
          </mxGeometry>
        </mxCell>
        <mxCell id="WIyWlLk6GJQsqaUBKTNV-5" value="No" style="edgeStyle=orthogonalEdgeStyle;rounded=0;html=1;jettySize=auto;orthogonalLoop=1;fontSize=11;endArrow=block;endFill=0;endSize=8;strokeWidth=1;shadow=0;labelBackgroundColor=none;" parent="WIyWlLk6GJQsqaUBKTNV-1" source="WIyWlLk6GJQsqaUBKTNV-6" target="WIyWlLk6GJQsqaUBKTNV-7" edge="1">
          <mxGeometry y="10" relative="1" as="geometry">
            <mxPoint as="offset" />
          </mxGeometry>
        </mxCell>
        <mxCell id="WIyWlLk6GJQsqaUBKTNV-6" value="Lamp&lt;br&gt;plugged in?" style="rhombus;whiteSpace=wrap;html=1;shadow=0;fontFamily=Helvetica;fontSize=12;align=center;strokeWidth=1;spacing=6;spacingTop=-4;" parent="WIyWlLk6GJQsqaUBKTNV-1" vertex="1">
          <mxGeometry x="17" y="180" width="100" height="70" as="geometry" />
        </mxCell>
        <mxCell id="WIyWlLk6GJQsqaUBKTNV-7" value="Plug in lamp" style="rounded=1;whiteSpace=wrap;html=1;fontSize=12;glass=0;strokeWidth=1;shadow=0;" parent="WIyWlLk6GJQsqaUBKTNV-1" vertex="1">
          <mxGeometry x="167" y="190" width="120" height="40" as="geometry" />
        </mxCell>
        <mxCell id="WIyWlLk6GJQsqaUBKTNV-8" value="No" style="rounded=0;html=1;jettySize=auto;orthogonalLoop=1;fontSize=11;endArrow=block;endFill=0;endSize=8;strokeWidth=1;shadow=0;labelBackgroundColor=none;edgeStyle=orthogonalEdgeStyle;" parent="WIyWlLk6GJQsqaUBKTNV-1" source="WIyWlLk6GJQsqaUBKTNV-10" target="WIyWlLk6GJQsqaUBKTNV-11" edge="1">
          <mxGeometry x="0.3333" y="20" relative="1" as="geometry">
            <mxPoint as="offset" />
          </mxGeometry>
        </mxCell>
        <mxCell id="WIyWlLk6GJQsqaUBKTNV-9" value="Yes" style="edgeStyle=orthogonalEdgeStyle;rounded=0;html=1;jettySize=auto;orthogonalLoop=1;fontSize=11;endArrow=block;endFill=0;endSize=8;strokeWidth=1;shadow=0;labelBackgroundColor=none;" parent="WIyWlLk6GJQsqaUBKTNV-1" source="WIyWlLk6GJQsqaUBKTNV-10" target="WIyWlLk6GJQsqaUBKTNV-12" edge="1">
          <mxGeometry y="10" relative="1" as="geometry">
            <mxPoint as="offset" />
          </mxGeometry>
        </mxCell>
        <mxCell id="WIyWlLk6GJQsqaUBKTNV-10" value="Bulb&lt;br&gt;burned out?" style="rhombus;whiteSpace=wrap;html=1;shadow=0;fontFamily=Helvetica;fontSize=12;align=center;strokeWidth=1;spacing=6;spacingTop=-4;" parent="WIyWlLk6GJQsqaUBKTNV-1" vertex="1">
          <mxGeometry x="17" y="290" width="100" height="80" as="geometry" />
        </mxCell>
        <mxCell id="WIyWlLk6GJQsqaUBKTNV-11" value="Repair Lamp" style="rounded=1;whiteSpace=wrap;html=1;fontSize=12;glass=0;strokeWidth=1;shadow=0;" parent="WIyWlLk6GJQsqaUBKTNV-1" vertex="1">
          <mxGeometry x="7" y="430" width="120" height="40" as="geometry" />
        </mxCell>
        <mxCell id="WIyWlLk6GJQsqaUBKTNV-12" value="Replace Bulb" style="rounded=1;whiteSpace=wrap;html=1;fontSize=12;glass=0;strokeWidth=1;shadow=0;" parent="WIyWlLk6GJQsqaUBKTNV-1" vertex="1">
          <mxGeometry x="167" y="310" width="120" height="40" as="geometry" />
        </mxCell>
        <mxCell id="KUeelCluZ6_3EQkKuouV-0" value="服务端" style="rounded=1;whiteSpace=wrap;html=1;" vertex="1" parent="WIyWlLk6GJQsqaUBKTNV-1">
          <mxGeometry x="560" y="30" width="120" height="50" as="geometry" />
        </mxCell>
        <mxCell id="KUeelCluZ6_3EQkKuouV-1" value="" style="endArrow=classic;html=1;exitX=0.5;exitY=1;exitDx=0;exitDy=0;" edge="1" parent="WIyWlLk6GJQsqaUBKTNV-1" source="KUeelCluZ6_3EQkKuouV-0">
          <mxGeometry width="50" height="50" relative="1" as="geometry">
            <mxPoint x="530" y="280" as="sourcePoint" />
            <mxPoint x="620" y="160" as="targetPoint" />
          </mxGeometry>
        </mxCell>
        <mxCell id="KUeelCluZ6_3EQkKuouV-2" value="创建服务端套接字，等待客户端的连接&lt;br&gt;&lt;br&gt;&lt;font face=&quot;monospace&quot;&gt;&lt;font color=&quot;#ba0000&quot;&gt;&lt;span style=&quot;font-size: 0px&quot;&gt;ServerSocket ss = new ServerSocket(2222);&lt;/span&gt;&lt;/font&gt;&lt;font color=&quot;rgba(0, 0, 0, 0)&quot;&gt;&lt;span style=&quot;font-size: 0px&quot;&gt;ServerSocket ss = new ServerSocket(2222);%3CmxGraphModel%3E%3Croot%3E%3CmxCell%20id%3D%220%22%2F%3E%3CmxCell%20id%3D%221%22%20parent%3D%220%22%2F%3E%3CmxCell%20id%3D%222%22%20value%3D%22%E5%88%9B%E5%BB%BA%E6%9C%8D%E5%8A%A1%E7%AB%AF%E5%A5%97%E6%8E%A5%E5%AD%97%EF%BC%8C%E7%AD%89%E5%BE%85%E5%AE%A2%E6%88%B7%E7%AB%AF%E7%9A%84%E8%BF%9E%E6%8E%A5%26lt%3Bbr%26gt%3B%26lt%3Bimg%20src%3D%26quot%3Bdata%3Aimage%2Fpng%3Bbase64%2CiVBORw0KGgoAAAANSUhEUgAAArQAAAAvCAYAAAASAFlzAAATeUlEQVR4Ae2df2gc55nHv3Lz52EatZgg15Wd1dqocQmiipC8IhShk6NIpMEnbCpQi4505So5rx0qYy5GFNEUEYXaa18caXsgegKndo1Jg%2BWtFbP0gmWJtYIIdWpsaRPrEgtf7s4%2B3P5bq7wz887OjGZmd2d%2FaLT6Clb7zsz7vD8%2B8867z7zv8z5vxcrKygqK9bf4Ps4Ez%2BIrkX54AD8fe84lp2V8FDqMxHURpRkHVg6h1iW2vHSrbz%2FOxcRRNVoWRvB8jQjfwIWKEdwUwYz5ypTcvuPoq3gRSjYi2p4wLk%2BPod1NhNdIgARIgARIgARIgARKQmBTSXIpYia1LzdrqS%2Fh5uSyGo7PqMosgN0vuynReRRsMQ9ZipIACZAACZAACZAACRSMwLpXaNHehZY9Ko%2Bvzifxv1jGR7%2B4pp7Y043vF2QYtR1jKytYWVnA5ZN7gOsxvDgSL9hNYEIkQAIkQAIkQAIkQALeCax%2FhRZV%2BM7%2BapXA9Wn8OZ7ETcVsAdh9%2FGV80zsbG8katEd%2BA6HTIvY%2BqNLaIOIpEiABEiABEiABEigxgeIqtDVbsUVWKHYeHxVpmv6bkf3YreSzhMSLms0umvFMQUZnZQX4TQIkQAIkQAIkQAIk4EcCTxS3UM%2FhmTBwU1lNtYREcD8SeobGRVz6SY8BYz5qEltOdmW1qMxjhhQjARIgARIgARIgARLwCYHijtACqB07iQMnm7FFs3MtVr1rB7rTo8Goxu6OqmJlxXRJgARIgARIgARIgAR8RKDII7SiplWojRxSPu71rsLz0%2BfxvHuk7K6G92vuu7KLzlgkQAIkQAIkQAIkQALrl0DRR2hLhebWiLSdrUbLQJFcdZkqcxN3imQTbMqGByRAAiRAAiRAAiRAAq4EykChXcat6IC2uYLYSKHYo7M12KmsQLuOwz%2BOIk6l1rWB8SIJkAAJkAAJkAAJFJtARVF3Citm6Y27kMl89nTjtelCu%2BqSiRu%2BF6MIBQ9D8w6mXAhfXsEYvSoYIDFIAiRAAiRAAiRAAqUhUAYjtAJUNXafHCiNMiuyq4lgeuEywnuKvNKtNG2AuZAACZAACZAACZDAuiawfkdo1zV2Fp4ESIAESIAESIAESKBQBJ7477%2BsFCqtskzn2a1fU%2Br1yb2%2FlWX9WCkSIAESIAESIAESWO8EysTkYL3fBpafBEiABEiABEiABEjAKwEqtF7JUY4ESIAESIAESIAESMAXBKjQ%2BuI2sBAkQAIkQAIkQAIkQAJeCVCh9UqOciRAAiRAAiRQ9gRSiEUOIpYq%2B4qmK5iKorM1irvpMwytAwJUaNfBTWIRi0EghVjrJjy1ObSxOupioGSaJEACWRJYf%2F1OIhLE4HgMH1zZOBpt4tQRzCWPoDESz%2FK%2BMpofCFChzeUupOKIRULo3CwUIe3TGsLAmTjf5Nw4khsAre3wrd%2BtpfCaHQE%2BP3ZUMp8jt7z7nbtnQugeB9A7iUv9AWfmqTgGWkPp38XNIXRGMvwu%2BlimJfoYZ3sBjHeg88zGUeSdb%2FD6uEKFNsv7JB7sp%2Bo6MDg%2BgzmjTHIGE8c6%2BCZnZGIIk5sGI3UHH1jbjoETgyRgR4DPjx2VzOfITWOUT7%2BTiuK1YzNiP3mcjbpsgzl1EJ11HZhIirjybwZz4x1odHqB97OMVoWW6CR6AMwd%2BxFn8eRt9fk3FdpsblAgoj3YQP3wJGYfPcZ9%2BZlfwNnhMOqzSWejxdE7RHLbaLee9S0AAT4%2F3iCSmzduJqkUYn1HlMGbngujaDFdMx7EMdAVwxya0HNhQf9dnL2g%2FSYmj%2BCdKWN8EfazjLGs7Ri5EAYwg8E%2B2tMayfg1TIU2izuzfe9%2BdVRWmXZpx3ajTCCAlv5RXHJ7gzXG30Dhu1fOk9sGut%2BsamEJ8PnxxpPcvHEzSU2NYDAJoOEEXm0zXbEcqEpfz4VpjLSlTRK2t43idTFlD2Bi0mqH6mcZS%2FXaBjDUAMBWMbfE5eGaE6BCm8st%2BPRO7rayqRQSFrvbztaDiE3Z2%2BUkIoaFSpoNmG6vuzmEAZOcXGCwCQOr3oK1ik0dVO2a7KZ%2Bilo2A1hP3FSb03TdN8GNm57bKrusTeiMRJGwx62LmQJiOkyzkTbz1mJly02yF2nVqaMdomNslPbX8tvu3pgKlMPBl9O49qufYLTz%2BxiSn0M%2FwcXZL5wT8SLjnNraXZk6jXc3H8C7m4%2Fi4xTwcOo0zrWKY%2FVzrvU0PndqB6kb%2BDhyFOe0uIpM61F8OLVsqs%2FnEZneaXxuumI8WMbHMt%2FIDeMFb2FPzw%2F7HXjixn5HNNLEZExpqz1HI%2BYBHLsW3DaKERul9%2BldTXax1XN%2BljGVOoDwUTFKa6eYmyJqB8IjhGpLTNtbOz7FPUeFNgu%2B4o1fMSkQykhrDsqRcP1RF0S3xXZyLhnDYFfQ1dh84YpqlyRsdtN%2FM5joChqU1wDa9qmdxuq3YFXKsWMqetkAMbLtiZtmX2WuO5CJm7SbM9tyAXPjR9B9yjpKkKZqDN0VeWtTaEPzj02jDkq8PLgZ8ylK%2BMv3MHrwDSQSC%2FjKmMFnC7j5ix5cnDWe1MJeZGyS8dupxb6j%2BG3XNTwQo0za34PkNfyhzkYRTb2Pc3VvIzm%2BhAcysvhOLmGx6wjeNSilX99VbYzhEL6n51u5a6tDnMynPT8%2FebRR9jvqOgnj3dl4%2FU4ccbEQDGG02yiqRjYbItz2A8WWFuO%2FRyJThVOXlLUSItrcsZHM8TOlx%2Bs5EaBCmw2uVBSXDDZB3XXqaGEi5TTcIxKVNkhN6BleMNndSvsiZ2NzsdAshrmGMIZ0uyRhq7taed3ef9zlYXPqmEpTNgQiuXMTP8aKQgnU9xrtldP1nztmVOq1Gzh1EI3KAgar3GPMXjiBnl2Zb7RQZht1ZXYa4fQMmiacI7e2Ud2m7P78CVW5bzhhaguKLfbVLEZBMhcft8%2BPKYrs7h9PYPDSH%2FXPq6NvoqUlaJuCFxnbhFxOKi8acjTa8buQ7tOW8CC5BDQ044X5c%2FjpoxN4QZv%2BBK5h0TSbcQMf1r2nKrJ6fIvM%2BNv4UJN5smabVtMv8MDt8ddiVdZUuZDJcMnL88N%2BB%2Bx38ux3UndwSzTN3h%2B42M5maLuI4x2lP27C0CGXBWWmZPwqsxNBYXaAP2Ex0zMf6MRLvervdP3wQB78TGB4kCUBKrRZgkLbKC7NT2JIa6zirb27LoinhNsukxmAlqBmg1Q%2F%2FB8Y6Q%2BYpm2EfdG%2FKcrpjKNvP0WZuzqKsG6XFECLHPE0TaW1o135sY4hbvqhBjD1e0yI4lg7ppKVDciVm7R%2Fqx9eUOyS0%2FbKwlZ5GrM2Sr3y8vCWOkW2Wg7Y3hbBSL97pyqULqHMoiGMs4%2FslFnBU7Ur83pPs21q3uJ9gf%2BRXsClzqUl9I1vhdD8%2Bq%2Bxr9GashcZaxp%2BPW7GC1f%2FBTuUl5Iq7Oho1gv6YDFtRvDwzO%2BwqFypRsOYjC9OVGFH9Geo0aQWJzXTgcA2VOopqQHdDEGO5KbuaSO91ahc9VJkEc50yH5HJ5R9n8h%2BR4fmJZC6Zfbk4yGNRKRD%2B%2B05bjMwYJ%2Bgf2UCqHlGlHkGC5kUWgQQjk4rAxmubs7sEfBsngSo0OYCMNCuNdYFKKOsirG4agYgfO4Z%2F%2B4u%2Fkk5FKOJRjtQGZajiUYZY7i2w7L4TFwUIzbCu4JlRK%2BlQ7Pxecu8ElM1N1j9hlzKsil1yppbClMXhYlFE17aa68J6NOwJqX%2BDhaUqeUwXnfzlWgEbAgvnAqpo7ti9PSq84refLkZsixCcBuau9X5QWFeMHTol7j2u2n8n2tOXmRcE7S9uL1f7eB1zyDSQ4jp2%2BElwjbFzCcrh%2F8JOzJHw%2F%2FfXtJiLSFZJ%2B1j5ffbmrIL4NN7eChiBrZqCu2SNkJ7A4vK9KzwWTlrsavdlr9Cq%2BTJfkdgyKVPVG4q%2Bx0FQ67%2FZD9Xv2tnrqJKfDE4oPiuFf1ploul%2FSwjKiXtgW9lHKL1hIxCBSJAhdYTyADEKOulq2I6W1Umhc8948Ksz24bbV89ZZK9kL4S8zzSg8WauUHDfuiDvFqKJS2bqRaZuanRv4sae30WCOxErSlNYd2hTZE11OJp67UsjoO7vqvGSt7CZy7x146bS6GMlxr%2FFYOjb2L300HgsykkfvMG3hELw9wWhXmRMea5rsPLePCp9wooI71Ts2mlV5ozpL7QTBi24evek7eRzPz8lLSNst9Rp%2BY3er9jaKnKTJf0XWsZeDFEMwX9LGMqKA98T4AKbZ63SCi2yo4iAIxvb%2FKNrueCwWetaURKPV%2BYaQm5OMxgwqCZG9itUi1t2ewBO3FTY7vYKknl1ZisVHIzKKRGEVN476hmyhBDd%2BtBR0N%2BP3Azldvu4Fsh7Dv1a8V%2B9tXjfartrLYobPRX03YSgBcZ%2B5Rsz4ofLDkz4fxdSBta22JkOFmNBsXeVtjP2nyuvownlRS2olKxp1OT%2B3zyGoBqNAyrJg3CNOHhootHiQylyPay0%2FNT2jbKfkd5uS6zfmd7jfqCP3f7TrbNUYlnUkwfOc90GRP1s4yxnPJFsdZxpMUYm%2BG1IkCFtkjkZafg5H2g0NnKxWFzFy8prsVUcwP7VaqlLlv2dU3bKjntG67b2O7rNNglS6N9GzviLDMX0%2BKKfa6wjXZwo%2BVfbvaV%2FEbjDxXb2cHRPmwB8FXiP3HbPqp%2B1ouMLrzuAlV4ep%2F0WiBNCDJVogqVij0d8OB2Uhvh3YbK%2FkbV3nZ8Nj3K%2F8xWTQnOlGbhrpe6jbLfEfeuzPqdQK26gNVk1uXeRv2smHopm31tmxB0mjm0F%2BDZEhOgQpsF8JboNAbOxHHX6tVA%2BCOV9kJWu0%2Fd1UdH7n5QsyjT6ija4rCkMDvQzA2si8GkUInKJvzv5spN2gML2%2BNOwVyWGapfTdX22GpjK0eKgIkudZFeWg64OxVVyqEn5RAQSq0y2q65ZzOmoYjkw00fRT6C10z1cihMzqencVGYFgi72S%2FNwtbj9FUvMmnpbENrYUObbdme3LtHX%2BS12GX1O7uMh6kb%2BLD1tOLXVqapu%2B4afw9JYbvd24gdeA41yuLMa0geU%2B1y83HZJfLy8vwgnzYqK5jTN%2Fsdgaus%2Bh29r3I3wZLNRLRTtV8WC2qzG5n1s4ysV%2FpbegtyMYXTI6u%2FU8pMlMPAiB6VgYITqLj%2F6PFKwVMtowSf3fo1tEQf471%2FrnCtlbK63rogSfdp6iS6ugMQGysIg3phqmDnrNopJeW8cOTfFUN9QxPmksDQvMtCmxKUTdbFrcx23NJv1HaSYotFsSuN9ZrYZCKo7m5jvSSOeydx37RAQcZvsnCS59VdcmatdmAeuMniOPJQFqPl67prGhc738BNmZnN9%2B7jf7R4OvAiY5OwX06JjRW6hAkAUDl8Agf6DS6zXK49PHMUv9WUUPuqCHOEt%2FA9OTpjSEvEr7lwDv8o2qPTeftEM551bC8GSbvnBx7aqMyL%2FY7T2oeN1e9k3R4Un8fapjGGdmkNmtqpn2WsBRfH2u%2Fq6t8Qu8hxDGzWPDxAbPm%2BgMKYFdrlxXNWAhyhtRKxOU5Egjg7HEZPg2Xnk4Ym1PeewNn5x%2FaN1uByR9lgwCbtgp7SFmnMJWcAm8VgprxKULaWqPAdmzs3Zfpf%2BI618FZZ2ymzomYBhLVFekKhT%2F9p9yhrX4ginQV9u0OxkYZppDYPbpJHvcEGM13OfEMh7NP8zQrzgvRfEFta%2BnBg1KrMihheZNIpl0voyf638NP5n6Ght1ofrVXq1lCNyt4f4oX5w2llVlwwue5qRo18uWrTzA4U4fxddsn2Yn0OwH7Htel55cZ%2BJ41VzpRNWDznpGNslFAKMc0lZE%2BHu%2BtHlYi6ra%2Bkk6sdspTjtzcCHKHNwE2M0Iq%2FT%2B79LUNMXiYBEiABEiCBciCQnqnyNGpfDghEHeTobE6zaOlRWo7QlrYhcIS2tLyZGwmQAAmQAAn4nEAA4TF1d8OJLmfPLz6vRJ7Fi2NAbLaDJgyNZWkSlkohJjeVsK6rybM0FM9MgAptZkaMQQLrgsA%2F%2FPlZUzmLfWzKjAckQALlRSAQ0Xa0jKHbsnFQeVXUvjZy5zKxM%2BTqbdCtMmJUdhOeqgtiUNloRdhcZyNnTYfH%2BRCgQpsPPcqSgE8ICOX1r9%2F5BFKJLdaxT6rLYpAACZSAgO75ZVx46zHvhlmC7NcsC%2BGFQdntrHfSfn2MY8nkuhqx1kOuInWMzAsFJkAb2gxAaUObARAvrzkBqbzKghT7WObDbxIggY1AQNjT%2FggYc%2FGaU24YUlEMnNqJV6M2W9CXW13LqD5UaDPcTCq0GQDxMgmQAAmQAAmQAAmsMYGKlZUV%2BqFd45vA7EmABEiABEiABEiABLwToA2td3aUJAESIAESIAESIAES8AEBKrQ%2BuAksAgmQAAmQAAmQAAmQgHcCVGi9s6MkCZAACZAACZAACZCADwhQofXBTWARSIAESIAESIAESIAEvBN4wrsoJf1BYBHRUBCHr%2B%2FByYVpRGr8UaryLMV%2F4corPfhgIYiXJv4de79dnrVcv7Vaxkehw0hcX12D3ZfPo8t2K3YvMqvT5xkSIAESIIG1JcAR2lz4L8YR7QshVFGBCvkJhdAXjWMxl3TWdVyNQSi6geq8VjdsGlfefAW%2FfOUs7q9VEZgvCZAACZAACawDAn8Hbf6yI1YXTv8AAAAASUVORK5CYII%3D%26quot%3B%20width%3D%26quot%3B692%26quot%3B%20height%3D%26quot%3B47%26quot%3B%26gt%3B%22%20style%3D%22rounded%3D0%3BwhiteSpace%3Dwrap%3Bhtml%3D1%3B%22%20vertex%3D%221%22%20parent%3D%221%22%3E%3CmxGeometry%20x%3D%22360%22%20y%3D%22170%22%20width%3D%22320%22%20height%3D%22140%22%20as%3D%22geometry%22%2F%3E%3C%2FmxCell%3E%3C%2Froot%3E%3C%2FmxGraphModel%3E&lt;/span&gt;&lt;/font&gt;&lt;/font&gt;&lt;span style=&quot;color: rgba(0 , 0 , 0 , 0) ; font-family: monospace ; font-size: 0px&quot;&gt;%3CmxGraphModel%3E%3Croot%3E%3CmxCell%20id%3D%220%22%2F%3E%3CmxCell%20id%3D%221%22%20parent%3D%220%22%2F%3E%3CmxCell%20id%3D%222%22%20value%3D%22%E5%88%9B%E5%BB%BA%E6%9C%8D%E5%8A%A1%E7%AB%AF%E5%A5%97%E6%8E%A5%E5%AD%97%EF%BC%8C%E7%AD%89%E5%BE%85%E5%AE%A2%E6%88%B7%E7%AB%AF%E7%9A%84%E8%BF%9E%E6%8E%A5%26lt%3Bbr%26gt%3B%26lt%3Bimg%20src%3D%26quot%3Bdata%3Aimage%2Fpng%3Bbase64%2CiVBORw0KGgoAAAANSUhEUgAAArQAAAAvCAYAAAASAFlzAAATeUlEQVR4Ae2df2gc55nHv3Lz52EatZgg15Wd1dqocQmiipC8IhShk6NIpMEnbCpQi4505So5rx0qYy5GFNEUEYXaa18caXsgegKndo1Jg%2BWtFbP0gmWJtYIIdWpsaRPrEgtf7s4%2B3P5bq7wz887OjGZmd2d%2FaLT6Clb7zsz7vD8%2B8867z7zv8z5vxcrKygqK9bf4Ps4Ez%2BIrkX54AD8fe84lp2V8FDqMxHURpRkHVg6h1iW2vHSrbz%2FOxcRRNVoWRvB8jQjfwIWKEdwUwYz5ypTcvuPoq3gRSjYi2p4wLk%2BPod1NhNdIgARIgARIgARIgARKQmBTSXIpYia1LzdrqS%2Fh5uSyGo7PqMosgN0vuynReRRsMQ9ZipIACZAACZAACZAACRSMwLpXaNHehZY9Ko%2Bvzifxv1jGR7%2B4pp7Y043vF2QYtR1jKytYWVnA5ZN7gOsxvDgSL9hNYEIkQAIkQAIkQAIkQALeCax%2FhRZV%2BM7%2BapXA9Wn8OZ7ETcVsAdh9%2FGV80zsbG8katEd%2BA6HTIvY%2BqNLaIOIpEiABEiABEiABEigxgeIqtDVbsUVWKHYeHxVpmv6bkf3YreSzhMSLms0umvFMQUZnZQX4TQIkQAIkQAIkQAIk4EcCTxS3UM%2FhmTBwU1lNtYREcD8SeobGRVz6SY8BYz5qEltOdmW1qMxjhhQjARIgARIgARIgARLwCYHijtACqB07iQMnm7FFs3MtVr1rB7rTo8Goxu6OqmJlxXRJgARIgARIgARIgAR8RKDII7SiplWojRxSPu71rsLz0%2BfxvHuk7K6G92vuu7KLzlgkQAIkQAIkQAIkQALrl0DRR2hLhebWiLSdrUbLQJFcdZkqcxN3imQTbMqGByRAAiRAAiRAAiRAAq4EykChXcat6IC2uYLYSKHYo7M12KmsQLuOwz%2BOIk6l1rWB8SIJkAAJkAAJkAAJFJtARVF3Citm6Y27kMl89nTjtelCu%2BqSiRu%2BF6MIBQ9D8w6mXAhfXsEYvSoYIDFIAiRAAiRAAiRAAqUhUAYjtAJUNXafHCiNMiuyq4lgeuEywnuKvNKtNG2AuZAACZAACZAACZDAuiawfkdo1zV2Fp4ESIAESIAESIAESKBQBJ7477%2BsFCqtskzn2a1fU%2Br1yb2%2FlWX9WCkSIAESIAESIAESWO8EysTkYL3fBpafBEiABEiABEiABEjAKwEqtF7JUY4ESIAESIAESIAESMAXBKjQ%2BuI2sBAkQAIkQAIkQAIkQAJeCVCh9UqOciRAAiRAAiRQ9gRSiEUOIpYq%2B4qmK5iKorM1irvpMwytAwJUaNfBTWIRi0EghVjrJjy1ObSxOupioGSaJEACWRJYf%2F1OIhLE4HgMH1zZOBpt4tQRzCWPoDESz%2FK%2BMpofCFChzeUupOKIRULo3CwUIe3TGsLAmTjf5Nw4khsAre3wrd%2BtpfCaHQE%2BP3ZUMp8jt7z7nbtnQugeB9A7iUv9AWfmqTgGWkPp38XNIXRGMvwu%2BlimJfoYZ3sBjHeg88zGUeSdb%2FD6uEKFNsv7JB7sp%2Bo6MDg%2BgzmjTHIGE8c6%2BCZnZGIIk5sGI3UHH1jbjoETgyRgR4DPjx2VzOfITWOUT7%2BTiuK1YzNiP3mcjbpsgzl1EJ11HZhIirjybwZz4x1odHqB97OMVoWW6CR6AMwd%2BxFn8eRt9fk3FdpsblAgoj3YQP3wJGYfPcZ9%2BZlfwNnhMOqzSWejxdE7RHLbaLee9S0AAT4%2F3iCSmzduJqkUYn1HlMGbngujaDFdMx7EMdAVwxya0HNhQf9dnL2g%2FSYmj%2BCdKWN8EfazjLGs7Ri5EAYwg8E%2B2tMayfg1TIU2izuzfe9%2BdVRWmXZpx3ajTCCAlv5RXHJ7gzXG30Dhu1fOk9sGut%2BsamEJ8PnxxpPcvHEzSU2NYDAJoOEEXm0zXbEcqEpfz4VpjLSlTRK2t43idTFlD2Bi0mqH6mcZS%2FXaBjDUAMBWMbfE5eGaE6BCm8st%2BPRO7rayqRQSFrvbztaDiE3Z2%2BUkIoaFSpoNmG6vuzmEAZOcXGCwCQOr3oK1ik0dVO2a7KZ%2Bilo2A1hP3FSb03TdN8GNm57bKrusTeiMRJGwx62LmQJiOkyzkTbz1mJly02yF2nVqaMdomNslPbX8tvu3pgKlMPBl9O49qufYLTz%2BxiSn0M%2FwcXZL5wT8SLjnNraXZk6jXc3H8C7m4%2Fi4xTwcOo0zrWKY%2FVzrvU0PndqB6kb%2BDhyFOe0uIpM61F8OLVsqs%2FnEZneaXxuumI8WMbHMt%2FIDeMFb2FPzw%2F7HXjixn5HNNLEZExpqz1HI%2BYBHLsW3DaKERul9%2BldTXax1XN%2BljGVOoDwUTFKa6eYmyJqB8IjhGpLTNtbOz7FPUeFNgu%2B4o1fMSkQykhrDsqRcP1RF0S3xXZyLhnDYFfQ1dh84YpqlyRsdtN%2FM5joChqU1wDa9qmdxuq3YFXKsWMqetkAMbLtiZtmX2WuO5CJm7SbM9tyAXPjR9B9yjpKkKZqDN0VeWtTaEPzj02jDkq8PLgZ8ylK%2BMv3MHrwDSQSC%2FjKmMFnC7j5ix5cnDWe1MJeZGyS8dupxb6j%2BG3XNTwQo0za34PkNfyhzkYRTb2Pc3VvIzm%2BhAcysvhOLmGx6wjeNSilX99VbYzhEL6n51u5a6tDnMynPT8%2FebRR9jvqOgnj3dl4%2FU4ccbEQDGG02yiqRjYbItz2A8WWFuO%2FRyJThVOXlLUSItrcsZHM8TOlx%2Bs5EaBCmw2uVBSXDDZB3XXqaGEi5TTcIxKVNkhN6BleMNndSvsiZ2NzsdAshrmGMIZ0uyRhq7taed3ef9zlYXPqmEpTNgQiuXMTP8aKQgnU9xrtldP1nztmVOq1Gzh1EI3KAgar3GPMXjiBnl2Zb7RQZht1ZXYa4fQMmiacI7e2Ud2m7P78CVW5bzhhaguKLfbVLEZBMhcft8%2BPKYrs7h9PYPDSH%2FXPq6NvoqUlaJuCFxnbhFxOKi8acjTa8buQ7tOW8CC5BDQ044X5c%2FjpoxN4QZv%2BBK5h0TSbcQMf1r2nKrJ6fIvM%2BNv4UJN5smabVtMv8MDt8ddiVdZUuZDJcMnL88N%2BB%2Bx38ux3UndwSzTN3h%2B42M5maLuI4x2lP27C0CGXBWWmZPwqsxNBYXaAP2Ex0zMf6MRLvervdP3wQB78TGB4kCUBKrRZgkLbKC7NT2JIa6zirb27LoinhNsukxmAlqBmg1Q%2F%2FB8Y6Q%2BYpm2EfdG%2FKcrpjKNvP0WZuzqKsG6XFECLHPE0TaW1o135sY4hbvqhBjD1e0yI4lg7ppKVDciVm7R%2Fqx9eUOyS0%2FbKwlZ5GrM2Sr3y8vCWOkW2Wg7Y3hbBSL97pyqULqHMoiGMs4%2FslFnBU7Ur83pPs21q3uJ9gf%2BRXsClzqUl9I1vhdD8%2Bq%2Bxr9GashcZaxp%2BPW7GC1f%2FBTuUl5Iq7Oho1gv6YDFtRvDwzO%2BwqFypRsOYjC9OVGFH9Geo0aQWJzXTgcA2VOopqQHdDEGO5KbuaSO91ahc9VJkEc50yH5HJ5R9n8h%2BR4fmJZC6Zfbk4yGNRKRD%2B%2B05bjMwYJ%2Bgf2UCqHlGlHkGC5kUWgQQjk4rAxmubs7sEfBsngSo0OYCMNCuNdYFKKOsirG4agYgfO4Z%2F%2B4u%2Fkk5FKOJRjtQGZajiUYZY7i2w7L4TFwUIzbCu4JlRK%2BlQ7Pxecu8ElM1N1j9hlzKsil1yppbClMXhYlFE17aa68J6NOwJqX%2BDhaUqeUwXnfzlWgEbAgvnAqpo7ti9PSq84refLkZsixCcBuau9X5QWFeMHTol7j2u2n8n2tOXmRcE7S9uL1f7eB1zyDSQ4jp2%2BElwjbFzCcrh%2F8JOzJHw%2F%2FfXtJiLSFZJ%2B1j5ffbmrIL4NN7eChiBrZqCu2SNkJ7A4vK9KzwWTlrsavdlr9Cq%2BTJfkdgyKVPVG4q%2Bx0FQ67%2FZD9Xv2tnrqJKfDE4oPiuFf1ploul%2FSwjKiXtgW9lHKL1hIxCBSJAhdYTyADEKOulq2I6W1Umhc8948Ksz24bbV89ZZK9kL4S8zzSg8WauUHDfuiDvFqKJS2bqRaZuanRv4sae30WCOxErSlNYd2hTZE11OJp67UsjoO7vqvGSt7CZy7x146bS6GMlxr%2FFYOjb2L300HgsykkfvMG3hELw9wWhXmRMea5rsPLePCp9wooI71Ts2mlV5ozpL7QTBi24evek7eRzPz8lLSNst9Rp%2BY3er9jaKnKTJf0XWsZeDFEMwX9LGMqKA98T4AKbZ63SCi2yo4iAIxvb%2FKNrueCwWetaURKPV%2BYaQm5OMxgwqCZG9itUi1t2ewBO3FTY7vYKknl1ZisVHIzKKRGEVN476hmyhBDd%2BtBR0N%2BP3Azldvu4Fsh7Dv1a8V%2B9tXjfartrLYobPRX03YSgBcZ%2B5Rsz4ofLDkz4fxdSBta22JkOFmNBsXeVtjP2nyuvownlRS2olKxp1OT%2B3zyGoBqNAyrJg3CNOHhootHiQylyPay0%2FNT2jbKfkd5uS6zfmd7jfqCP3f7TrbNUYlnUkwfOc90GRP1s4yxnPJFsdZxpMUYm%2BG1IkCFtkjkZafg5H2g0NnKxWFzFy8prsVUcwP7VaqlLlv2dU3bKjntG67b2O7rNNglS6N9GzviLDMX0%2BKKfa6wjXZwo%2BVfbvaV%2FEbjDxXb2cHRPmwB8FXiP3HbPqp%2B1ouMLrzuAlV4ep%2F0WiBNCDJVogqVij0d8OB2Uhvh3YbK%2FkbV3nZ8Nj3K%2F8xWTQnOlGbhrpe6jbLfEfeuzPqdQK26gNVk1uXeRv2smHopm31tmxB0mjm0F%2BDZEhOgQpsF8JboNAbOxHHX6tVA%2BCOV9kJWu0%2Fd1UdH7n5QsyjT6ija4rCkMDvQzA2si8GkUInKJvzv5spN2gML2%2BNOwVyWGapfTdX22GpjK0eKgIkudZFeWg64OxVVyqEn5RAQSq0y2q65ZzOmoYjkw00fRT6C10z1cihMzqencVGYFgi72S%2FNwtbj9FUvMmnpbENrYUObbdme3LtHX%2BS12GX1O7uMh6kb%2BLD1tOLXVqapu%2B4afw9JYbvd24gdeA41yuLMa0geU%2B1y83HZJfLy8vwgnzYqK5jTN%2Fsdgaus%2Bh29r3I3wZLNRLRTtV8WC2qzG5n1s4ysV%2FpbegtyMYXTI6u%2FU8pMlMPAiB6VgYITqLj%2F6PFKwVMtowSf3fo1tEQf471%2FrnCtlbK63rogSfdp6iS6ugMQGysIg3phqmDnrNopJeW8cOTfFUN9QxPmksDQvMtCmxKUTdbFrcx23NJv1HaSYotFsSuN9ZrYZCKo7m5jvSSOeydx37RAQcZvsnCS59VdcmatdmAeuMniOPJQFqPl67prGhc738BNmZnN9%2B7jf7R4OvAiY5OwX06JjRW6hAkAUDl8Agf6DS6zXK49PHMUv9WUUPuqCHOEt%2FA9OTpjSEvEr7lwDv8o2qPTeftEM551bC8GSbvnBx7aqMyL%2FY7T2oeN1e9k3R4Un8fapjGGdmkNmtqpn2WsBRfH2u%2Fq6t8Qu8hxDGzWPDxAbPm%2BgMKYFdrlxXNWAhyhtRKxOU5Egjg7HEZPg2Xnk4Ym1PeewNn5x%2FaN1uByR9lgwCbtgp7SFmnMJWcAm8VgprxKULaWqPAdmzs3Zfpf%2BI618FZZ2ymzomYBhLVFekKhT%2F9p9yhrX4ginQV9u0OxkYZppDYPbpJHvcEGM13OfEMh7NP8zQrzgvRfEFta%2BnBg1KrMihheZNIpl0voyf638NP5n6Ght1ofrVXq1lCNyt4f4oX5w2llVlwwue5qRo18uWrTzA4U4fxddsn2Yn0OwH7Htel55cZ%2BJ41VzpRNWDznpGNslFAKMc0lZE%2BHu%2BtHlYi6ra%2Bkk6sdspTjtzcCHKHNwE2M0Iq%2FT%2B79LUNMXiYBEiABEiCBciCQnqnyNGpfDghEHeTobE6zaOlRWo7QlrYhcIS2tLyZGwmQAAmQAAn4nEAA4TF1d8OJLmfPLz6vRJ7Fi2NAbLaDJgyNZWkSlkohJjeVsK6rybM0FM9MgAptZkaMQQLrgsA%2F%2FPlZUzmLfWzKjAckQALlRSAQ0Xa0jKHbsnFQeVXUvjZy5zKxM%2BTqbdCtMmJUdhOeqgtiUNloRdhcZyNnTYfH%2BRCgQpsPPcqSgE8ICOX1r9%2F5BFKJLdaxT6rLYpAACZSAgO75ZVx46zHvhlmC7NcsC%2BGFQdntrHfSfn2MY8nkuhqx1kOuInWMzAsFJkAb2gxAaUObARAvrzkBqbzKghT7WObDbxIggY1AQNjT%2FggYc%2FGaU24YUlEMnNqJV6M2W9CXW13LqD5UaDPcTCq0GQDxMgmQAAmQAAmQAAmsMYGKlZUV%2BqFd45vA7EmABEiABEiABEiABLwToA2td3aUJAESIAESIAESIAES8AEBKrQ%2BuAksAgmQAAmQAAmQAAmQgHcCVGi9s6MkCZAACZAACZAACZCADwhQofXBTWARSIAESIAESIAESIAEvBN4wrsoJf1BYBHRUBCHr%2B%2FByYVpRGr8UaryLMV%2F4corPfhgIYiXJv4de79dnrVcv7Vaxkehw0hcX12D3ZfPo8t2K3YvMqvT5xkSIAESIIG1JcAR2lz4L8YR7QshVFGBCvkJhdAXjWMxl3TWdVyNQSi6geq8VjdsGlfefAW%2FfOUs7q9VEZgvCZAACZAACawDAn8Hbf6yI1YXTv8AAAAASUVORK5CYII%3D%26quot%3B%20width%3D%26quot%3B692%26quot%3B%20height%3D%26quot%3B47%26quot%3B%26gt%3B%22%20style%3D%22rounded%3D0%3BwhiteSpace%3Dwrap%3Bhtml%3D1%3B%22%20vertex%3D%221%22%20parent%3D%221%22%3E%3CmxGeometry%20x%3D%22360%22%20y%3D%22170%22%20width%3D%22320%22%20height%3D%22140%22%20as%3D%22geometry%22%2F%3E%3C%2FmxCell%3E%3C%2Froot%3E%3C%2FmxGraphModel%3E&lt;/span&gt;" style="rounded=0;whiteSpace=wrap;html=1;" vertex="1" parent="WIyWlLk6GJQsqaUBKTNV-1">
          <mxGeometry x="460" y="160" width="320" height="140" as="geometry" />
        </mxCell>
      </root>
    </mxGraphModel>
  </diagram>
</mxfile>
